/* XPM */
static char * mp_xpm[] = {
	(char *) "32 32 53 1",
	(char *) " 	c None",
	(char *) ".	c #8292AE",
	(char *) "+	c #FFFFFF",
	(char *) "@	c #535353",
	(char *) "#	c #000000",
	(char *) "$	c #AFAFAF",
	(char *) "%	c #151515",
	(char *) "&	c #161616",
	(char *) "*	c #171717",
	(char *) "=	c #2A2A2A",
	(char *) "-	c #F5F5F5",
	(char *) ";	c #767676",
	(char *) ">	c #565656",
	(char *) ",	c #131313",
	(char *) "'	c #1E1E1E",
	(char *) ")	c #414141",
	(char *) "!	c #B5B5B5",
	(char *) "~	c #A7A7A7",
	(char *) "{	c #828282",
	(char *) "]	c #DDDDDD",
	(char *) "^	c #060606",
	(char *) "/	c #434343",
	(char *) "(	c #474747",
	(char *) "_	c #090909",
	(char *) ":	c #0C0C0C",
	(char *) "<	c #E8E8E8",
	(char *) "[	c #575757",
	(char *) "}	c #616161",
	(char *) "|	c #676767",
	(char *) "1	c #1B1B1B",
	(char *) "2	c #686868",
	(char *) "3	c #CBCBCB",
	(char *) "4	c #010101",
	(char *) "5	c #EFEFEF",
	(char *) "6	c #5B5B5B",
	(char *) "7	c #040404",
	(char *) "8	c #D7D7D7",
	(char *) "9	c #383838",
	(char *) "0	c #3B3B3B",
	(char *) "a	c #3A3A3A",
	(char *) "b	c #252525",
	(char *) "c	c #3C3C3C",
	(char *) "d	c #424242",
	(char *) "e	c #656565",
	(char *) "f	c #D3D3D3",
	(char *) "g	c #5C5C5C",
	(char *) "h	c #5E5E5E",
	(char *) "i	c #484848",
	(char *) "j	c #A9A9A9",
	(char *) "k	c #030303",
	(char *) "l	c #F0F0F0",
	(char *) "m	c #464646",
	(char *) "n	c #4A4A4A",
	(char *) "................................",
	(char *) "................++@.............",
	(char *) "..............++++@@@...........",
	(char *) "............++++#+@@@@@.........",
	(char *) "..........++++#+#+@@@@@@........",
	(char *) ".........+++#+#+#+@@@@@@........",
	(char *) ".........+#+#+#+#+@@@@@@........",
	(char *) ".........+#+#+#+#+@@@@@@........",
	(char *) ".........+#+#+#+#+@@@@@@........",
	(char *) ".........+#+#+#+#+@@@@@@........",
	(char *) ".........+#+#+#+#+@@@@@@........",
	(char *) "....++@..+#+#+#+#+@@@@@@...+@...",
	(char *) "..++++@@@+#+#+#+#+@@@@@@.+++@@@.",
	(char *) "++++#+@@@+#+#+#+#+@@@@@+++#+@@@@",
	(char *) "++#+++@@@+#+#+#+#+@@@+++#+++@@@@",
	(char *) "#+++#+@@@+#+#+#+#+@+++#+++#+@@@@",
	(char *) "++#+++@@@+#+#+#+#+@+#+++#+++@@@@",
	(char *) "#+++#+@@@+#+#+#+#+@+++#+++++@@@@",
	(char *) "+##############################@",
	(char *) "#++++++++++++++++++++++++++++++#",
	(char *) "#+$%&*=-++++;*&%@+>,,,,,,,%')!+#",
	(char *) "#+~####{+++]^###/+(##########_+#",
	(char *) "#+~####:<++[####/+(###}|||1###+#",
	(char *) "#+~#####2+34####/+(###5+++6###+#",
	(char *) "#+~#####78)#####/+(###900a:###+#",
	(char *) "#+~######b######/+(##########%+#",
	(char *) "#+~###7#####7###/+(###9000cdef+#",
	(char *) "#+~###g#####h###/+(###5++++++++#",
	(char *) "#+~###fi###if###/+(###5++++++++#",
	(char *) "#+jkkklekkkelkkkm+nkkkl++++++++#",
	(char *) "#++++++++++++++++++++++++++++++#",
	(char *) "+##############################+"
};
